PathFileType	4	(X/Y/Z)	Patient4_TMGait_0pt4_03_left_26.trc.trc
DataRate	CameraRate	NumFrames	NumMarkers	Units	OrigDataRate	OrigDataStartFrame	OrigNumFrames
75.675675675676	75.675675675676	4	33	mm	75.675675675676	89	       141
Frame#	Time	Sacral			L.Shoulder			Chest			R.Shoulder			Neck			R.ASIS			L.ASIS			R.Thigh.Superior			R.Thigh.Lateral			R.Thigh.Inferior			R.Patella			L.Thigh.Superior			L.Thigh.Lateral			L.Thigh.Inferior			L.Patella			L.Shank.Superior			L.Shank.Lateral			L.Shank.Inferior			R.Shank.Superior			R.Shank.Lateral			R.Shank.Inferior			R.Heel			R.Midfoot.Superior			R.Midfoot.Lateral			R.Toe			L.Heel			L.Midfoot.Lateral			L.Midfoot.Superior			L.Toe			L.Elbow			L.Wrist			R.Elbow			R.Wrist			
		X1	Y1	Z1	X2	Y2	Z2	X3	Y3	Z3	X4	Y4	Z4	X5	Y5	Z5	X6	Y6	Z6	X7	Y7	Z7	X8	Y8	Z8	X9	Y9	Z9	X10	Y10	Z10	X11	Y11	Z11	X12	Y12	Z12	X13	Y13	Z13	X14	Y14	Z14	X15	Y15	Z15	X16	Y16	Z16	X17	Y17	Z17	X18	Y18	Z18	X19	Y19	Z19	X20	Y20	Z20	X21	Y21	Z21	X22	Y22	Z22	X23	Y23	Z23	X24	Y24	Z24	X25	Y25	Z25	X26	Y26	Z26	X27	Y27	Z27	X28	Y28	Z28	X29	Y29	Z29	X30	Y30	Z30	X31	Y31	Z31	X32	Y32	Z32	X33	Y33	Z33	

89	35.402857142857	840.571632766704	998.076186476774	464.849425955402	1023.590998421737	1431.354367446888	289.021625067230	1121.837328946335	1363.023383385212	452.856169640841	1030.797163887201	1431.985792929204	625.457917889833	1002.603864404575	1491.410626672047	446.532384940430	1072.483542578152	940.985049318329	584.824428686806	1056.733815909191	958.350671787553	311.335803620072	1126.820586184888	745.710699876331	553.756027575158	1055.632301187075	632.453456695978	616.101449748421	1134.813854264199	585.638128395166	533.861967181094	1141.105027849177	497.166507131387	540.475936859748	1113.129386855059	746.630739614778	333.378079186572	1036.953197491335	626.748597825413	261.492226125314	1131.253642735032	549.848851970162	316.976085760720	1130.964372261038	465.013450248258	312.702818651410	1068.237393737672	402.040981847770	306.446278630227	932.006077960730	346.692759552645	257.689967445590	930.898518325330	217.810551596147	313.656019969700	1114.649296255055	406.403963186310	549.505719261003	1047.484470925893	302.121061342691	615.358478260119	1089.481607974483	207.639896660122	551.049835033237	958.000318897695	41.345400606618	527.144413945039	1128.517484796369	96.611258613680	553.934610635709	1044.700408554462	36.625162595175	598.756756177255	1251.403132973847	49.318440870864	577.664996466678	750.081631963076	126.899462118202	354.184378718700	811.646635271172	96.111349696312	270.467030239533	913.555205441316	121.451024124128	291.410382524302	1008.407048859789	34.129484246310	254.039579530536	1002.278721581420	1089.086292187956	148.611308322578	1136.187670256378	861.169268523547	142.242010011940	985.769846959573	1092.382632708433	758.125983592809	1109.328223031260	861.770087154809	763.927057281725	
90	35.416071428571	840.507910862951	998.333845294431	468.587816167587	1021.075981138482	1432.275675545277	292.201581361864	1121.251535936879	1363.507290546808	454.719833524246	1032.176736500281	1431.790667078201	628.572403034086	1001.957298598158	1491.828100413553	450.176914897769	1073.430106308479	941.490555125790	586.522783918928	1055.545327963631	958.830012224028	313.079832855597	1126.230449782245	745.140880764811	556.332665915844	1053.769758188760	632.133956296619	617.924177756569	1132.831815786146	584.999382315628	535.734829192060	1138.387063833648	496.529815618279	541.801069496707	1116.823547558402	750.453133908230	335.097840158173	1045.075009040817	628.874103714689	262.487490249575	1141.808729133729	554.226681954248	317.437791043191	1142.976589382063	468.463876089963	312.709087286705	1078.973282844454	405.055288793001	306.739728333912	940.992073567523	353.353280944271	258.448328507263	936.811110346572	224.407661364817	314.249965920923	1111.400303211808	405.920314475914	550.587896027825	1043.698146157235	301.782360350722	616.012979736519	1085.019989672209	207.319729879584	551.474941470006	952.724003103260	41.375371214699	527.241093333153	1123.337189780595	96.620914576609	554.258801466937	1039.397169708563	36.600366610754	598.879488681641	1246.150547265726	49.100963228987	577.896106610393	753.007178145480	140.057078270928	355.105591694523	813.319028326948	106.511833061353	271.319950368754	916.656774192502	127.300124349343	292.077280822174	1007.347485114508	34.603736173928	254.735583823722	993.363382134897	1090.224708232285	152.114342243683	1123.144472795068	859.967106539812	143.435564919446	993.547947342779	1091.773316569548	762.652867959557	1122.631755114577	864.237991383256	767.087898108527	
91	35.429285714286	840.350059865070	998.666119858776	472.191059031719	1018.462781486964	1433.162798076577	295.178099192068	1120.626685582254	1364.023155649467	456.341743554019	1033.624151030067	1431.693756622363	631.432049287434	1001.309734020720	1492.281527582664	453.569941333556	1074.269960518124	941.960777880339	588.071579095236	1054.295776529542	959.400646060228	314.698222574742	1125.423097736655	744.553932249744	558.504963039258	1051.838159590581	631.842864646610	619.539548326589	1130.591679754027	584.349071345358	537.287811975696	1135.387039981436	495.893189538744	542.900115508035	1120.202913309230	754.460115314938	336.628501049982	1052.720186657554	631.420038840632	263.282899013419	1151.664811964396	559.051231172780	317.782878313408	1154.418632979233	472.514652685624	312.620631832389	1089.460086107917	408.521497288467	306.918577736801	950.062456128593	359.786647573373	259.116264410709	943.395524261252	230.805176849341	314.829140319674	1107.938436239369	405.452544404189	551.506810465543	1039.770363063304	301.448281357296	616.567989081530	1080.412028434299	206.996910641915	551.802295109665	947.358510105361	41.408893685270	527.327407689524	1118.124002876421	96.633358735334	554.640748798386	1034.002933465758	36.572382129772	598.975376096371	1240.821328356955	48.765642709648	578.093805690264	757.261664544743	151.902585965200	356.031188682045	816.506274947068	116.117095304526	272.182325145971	920.965639139089	133.095836150975	292.803493705658	1008.148951018520	35.615316738320	255.472618644520	984.511917366482	1091.399916941194	155.576607612061	1109.816289273946	858.744042122162	144.676200444123	1001.441718654533	1091.392472634963	766.943829274891	1135.994768298218	867.085649118560	769.817550611640	
92	35.442500000000	840.127719988397	999.064301332687	475.655186930640	1015.803379031576	1434.012901167968	297.950263475506	1119.981021240964	1364.574035651507	457.739256034748	1035.127399763376	1431.713847261412	634.032016241921	1000.673582988811	1492.773854612830	456.699660925164	1075.007824133279	942.381803747283	589.481406146225	1052.991330790630	960.061408486563	316.218350826027	1124.427385920316	743.977695720213	560.205010255133	1049.906183999087	631.605892763176	620.948263390352	1128.132209072782	583.702288349133	538.506376679955	1132.148912266794	495.270735727998	543.779321349095	1123.206504474818	758.577740351423	337.994811534087	1059.741156701150	634.328299609459	263.895505521788	1160.670845130353	564.216360165437	318.011668360394	1165.119396014226	477.069488942408	312.407231439741	1099.560947541106	412.354145606193	306.949734041346	959.096890061602	365.751931553577	259.666219304666	950.700059488533	236.715260999435	315.318874834392	1104.308327805346	405.012439192719	552.269085578612	1035.751991142951	301.137849237279	617.051825971483	1075.703100171864	206.683626713663	552.044674105312	941.949900102596	41.447858824059	527.412112349967	1112.900600221466	96.644546064505	555.047065265656	1028.564719182631	36.549154873223	599.054661713065	1235.458453043825	48.346982345112	578.261149734361	762.956281254192	161.826075464262	356.883214835378	821.384118307598	124.396491039613	272.973858839545	926.649042808274	138.520899366419	293.480115415818	1011.182320873395	37.146032583060	256.141915204217	975.786266498825	1092.597450294667	159.020083272203	1096.238796576085	857.497660652156	145.973632290790	1009.392632388366	1091.258168155795	770.963947730299	1149.384463586820	870.363620370083	772.065150714409	
